<?xml version="1.0" encoding="UTF-8"?><svg id="a" xmlns="http://www.w3.org/2000/svg" viewBox="0 0 499.453186 88"><defs><style>.b{fill:#7dc34b;}.c{fill:#626262;}.d{fill:none;stroke:#626262;stroke-width:1.5px;}</style></defs><rect class="b" y="6.245003" width="13.59" height="52.146997"/><path class="b" d="M115.835999,16.516006h-7.190002v31.603996h7.190002c4.371994,0,7.584991-1.316002,9.639992-3.951,2.054001-2.632999,3.081001-6.583,3.081001-11.851002,0-5.266998-1.027-9.216995-3.081001-11.851997-2.055-2.633003-5.267998-3.949997-9.639992-3.949997M184.647995,44c0-24.300995-19.700012-44-44-44-8.284012,0-16.032005,2.292999-22.648003,6.273003,7.754997.150002,13.749001,2.377998,17.943993,6.726997,4.346008,4.503006,6.518997,10.943001,6.518997,19.318001s-2.172989,14.813999-6.518997,19.318001c-4.345001,4.504-10.60099,6.755999-18.764992,6.755999h-18.110001c5.963005,17.23,22.320999,29.608,41.579002,29.608,24.299988,0,44-19.700001,44-44"/><path class="b" d="M54.494202,16.515701h9.244999c2.896,0,5.002995.527,6.319996,1.581001s1.975998,2.712997,1.975998,4.976997c0,2.319-.658997,4.004002-1.975998,5.057003-1.317001,1.053997-3.423996,1.579998-6.319996,1.579998h-9.244999v-13.195ZM73.773201,58.391701h15.011993l-13.273994-20.464001c3.319-1.210999,5.847-3.080997,7.584999-5.609997,1.737999-2.528,2.608002-5.688,2.608002-9.481003,0-5.373001-1.699005-9.480995-5.097-12.324997-3.397003-2.845001-8.256004-4.266998-14.577003-4.266998h-24.887997v52.146996h13.352001v-19.042h8.137997l11.141003,19.042Z"/><line class="d" x1="214.369904" x2="214.369904" y2="88"/><path class="c" d="M497.160187,40.992203l-4.463989,10.341999-4.513-10.341999h-2.438995l5.708008,12.903999-.415009.902c-.30899.731998-.653992,1.247999-1.036011,1.548998-.382996.301001-.858002.451-1.427002.451-.877991,0-1.651001-.316999-2.317993-.950998l-1,1.755999c.390015.391001.881989.687,1.476013.891001.592987.202999,1.207001.305,1.84198.305,1.040009,0,1.931-.269001,2.671021-.805.738983-.537001,1.385986-1.464001,1.938995-2.780998l6.268982-14.221001h-2.292999ZM479.890198,43.1632v-2.170998h-2.243988v12.927998h2.34198v-6.439999c0-1.397999.361023-2.476002,1.085022-3.231998.723999-.756001,1.720001-1.134003,2.987976-1.134003.227997,0,.407013.007999.537018.024002v-2.268002c-1.139008,0-2.106018.195-2.903015.584999-.796997.391003-1.398987.960003-1.804993,1.708M467.694183,52.0172c-.829987,0-1.573975-.190998-2.231995-.572998-.658997-.382-1.178986-.917999-1.561005-1.610001-.382996-.690998-.573975-1.484001-.573975-2.377998s.190979-1.687.573975-2.378002c.382019-.690998.902008-1.223999,1.561005-1.598.65802-.374001,1.402008-.561001,2.231995-.561001.82901,0,1.573029.187,2.232025.561001.65799.374001,1.173981.907001,1.548981,1.598.374023.691002.561005,1.484001.561005,2.378002s-.186981,1.687-.561005,2.377998c-.375.692001-.890991,1.228001-1.548981,1.610001-.658997.382-1.403015.572998-2.232025.572998M467.694183,54.066204c1.284027,0,2.435028-.284,3.451019-.853001,1.016998-.569,1.812988-1.354,2.390991-2.354.576996-1,.865997-2.135002.865997-3.403,0-1.269001-.289001-2.403-.865997-3.403-.578003-1-1.373993-1.781002-2.390991-2.342003-1.015991-.561001-2.166992-.841-3.451019-.841-1.284973,0-2.438995.279999-3.463989.841-1.023987.561001-1.825989,1.342003-2.402985,2.342003-.577026,1-.865997,2.133999-.865997,3.403,0,1.267998.288971,2.403.865997,3.403.576996,1,1.378998,1.785,2.402985,2.354,1.024994.569,2.179016.853001,3.463989.853001M459.03421,51.481201c-.503998.406002-1.114014.610001-1.82901.610001-.651001,0-1.151001-.187-1.5-.562-.350006-.373001-.524994-.91-.524994-1.609001v-7.000999h3.707977v-1.926998h-3.707977v-2.830002h-2.341003v2.830002h-2.196014v1.926998h2.196014v7.098c0,1.301003.356995,2.301003,1.072998,3,.714996.700001,1.722992,1.049004,3.024994,1.049004.536011,0,1.057007-.077003,1.561005-.231003.503998-.154999.927002-.377998,1.268005-.670998l-.731995-1.683002ZM444.033203,54.066204c1.17099,0,2.216003-.239002,3.13501-.719002.917999-.48,1.629974-1.167,2.133972-2.061001l-1.780975-1.123001c-.406006.619003-.911011,1.082001-1.512024,1.391003-.60199.308998-1.268982.462997-2,.462997-.845978,0-1.605988-.185997-2.280975-.560997-.675018-.374001-1.20401-.906002-1.585999-1.597-.382019-.691002-.573029-1.492001-.573029-2.403,0-.894001.19101-1.687.573029-2.378002.381989-.690998.91098-1.223999,1.585999-1.598.674988-.374001,1.434998-.561001,2.280975-.561001.731018,0,1.39801.155003,2,.463001.601013.308998,1.106018.772999,1.512024,1.390999l1.780975-1.146999c-.503998-.894001-1.215973-1.577-2.133972-2.049-.919006-.471001-1.96402-.707001-3.13501-.707001-1.317017,0-2.492004.279999-3.524994.841-1.03302.561001-1.841003,1.342003-2.427002,2.342003-.585022,1-.878021,2.133999-.878021,3.403,0,1.267998.292999,2.403.878021,3.403.585999,1,1.393982,1.785,2.427002,2.354,1.03299.569,2.207977.853001,3.524994.853001M428.763184,42.846203c1.122009,0,2.061005.344997,2.818024,1.035999.755981.692001,1.199005,1.582001,1.328979,2.671001h-8.293976c.129974-1.105003.573975-2,1.329987-2.683002.756012-.682999,1.695007-1.023998,2.816986-1.023998M435.154205,47.529202c0-1.300999-.272003-2.454998-.817017-3.464001-.544983-1.007999-1.300995-1.792999-2.268982-2.354-.96701-.561001-2.069-.841-3.305023-.841-1.235992,0-2.345978.279999-3.328979.841-.985016.561001-1.757019,1.346001-2.317993,2.354-.561005,1.009003-.841003,2.139-.841003,3.391003,0,1.267998.287994,2.406998.865997,3.414997.576996,1.008003,1.393982,1.793003,2.450989,2.354,1.057007.561001,2.269012.841003,3.63501.841003,1.072998,0,2.044006-.178001,2.915009-.536003.868988-.357998,1.596985-.877998,2.182983-1.560997l-1.292999-1.513c-.942993,1.041-2.187012,1.560997-3.731995,1.560997-1.269012,0-2.330017-.344997-3.183014-1.035999-.854004-.690998-1.354004-1.605999-1.500977-2.744999h10.488983c.03299-.292.049011-.528.049011-.707001M416.006195,43.1632v-2.170998h-2.243988v12.927998h2.341003v-6.439999c0-1.397999.362-2.476002,1.085999-3.231998.722992-.756001,1.720001-1.134003,2.987976-1.134003.228027,0,.406006.007999.537018.024002v-2.268002c-1.139008,0-2.106995.195-2.903015.584999-.796997.391003-1.398987.960003-1.804993,1.708M407.639191,38.5042c.455017,0,.833008-.149998,1.13501-.452.299988-.299999.450989-.669998.450989-1.108997,0-.423-.151001-.777-.450989-1.062-.302002-.284-.679993-.426003-1.13501-.426003-.454987,0-.833008.150002-1.134003.451-.300995.301003-.450989.663002-.450989,1.084999,0,.423.149994.781002.450989,1.074001.300995.292.679016.438999,1.134003.438999M406.468201,53.9202h2.34198v-12.927998h-2.34198v12.927998ZM389.101196,51.798203v-12.831001h4.610016c1.381989,0,2.597992.268002,3.646973.805,1.049011.536999,1.858002,1.289001,2.427002,2.256001.569.967999.854004,2.085999.854004,3.354,0,1.269001-.285004,2.387001-.854004,3.355-.569.966999-1.377991,1.719002-2.427002,2.256001-1.048981.535999-2.264984.805-3.646973.805h-4.610016ZM386.662201,53.9202h7.195984c1.805023,0,3.406006-.357998,4.805023-1.072998,1.39798-.716,2.483978-1.720001,3.255981-3.013.77301-1.292999,1.158997-2.776001,1.158997-4.452,0-1.674-.385986-3.158001-1.158997-4.451-.772003-1.292999-1.858002-2.297001-3.255981-3.013-1.399017-.715-3-1.073002-4.805023-1.073002h-7.195984v17.075001ZM375.270203,40.992203l-4.463013,10.341999-4.513-10.341999h-2.438995l5.708008,12.903999-.415009.902c-.30899.731998-.654999,1.247999-1.036987,1.548998-.382019.301001-.858002.451-1.427002.451-.878021,0-1.651001-.316999-2.317017-.950998l-1,1.755999c.390015.391001.882019.687,1.476013.891001.592987.202999,1.207001.305,1.841003.305,1.040985,0,1.931-.269001,2.67099-.805.73999-.537001,1.385986-1.464001,1.938995-2.780998l6.269012-14.221001h-2.292999ZM358.00119,43.1632v-2.170998h-2.244995v12.927998h2.34201v-6.439999c0-1.397999.362-2.476002,1.085999-3.231998.722992-.756001,1.718994-1.134003,2.987976-1.134003.22702,0,.406006.007999.536011.024002v-2.268002c-1.138,0-2.105988.195-2.902008.584999-.796997.391003-1.398987.960003-1.804993,1.708M345.804199,52.0172c-.82901,0-1.572998-.190998-2.231995-.572998-.65802-.382-1.179016-.917999-1.561005-1.610001-.382019-.690998-.572998-1.484001-.572998-2.377998s.190979-1.687.572998-2.378002c.381989-.690998.902985-1.223999,1.561005-1.598.658997-.374001,1.402985-.561001,2.231995-.561001.829987,0,1.574005.187,2.231995.561001.658997.374001,1.174988.907001,1.549011,1.598.373993.691002.560974,1.484001.560974,2.378002s-.186981,1.687-.560974,2.377998c-.374023.692001-.890015,1.228001-1.549011,1.610001-.65799.382-1.402008.572998-2.231995.572998M345.804199,54.066204c1.285004,0,2.434998-.284,3.451996-.853001,1.015991-.569,1.812988-1.354,2.389984-2.354.577026-1,.866028-2.135002.866028-3.403,0-1.269001-.289001-2.403-.866028-3.403-.576996-1-1.373993-1.781002-2.389984-2.342003-1.016998-.561001-2.166992-.841-3.451996-.841s-2.438995.279999-3.463013.841c-1.024994.561001-1.825989,1.342003-2.402985,2.342003-.578003,1-.865997,2.133999-.865997,3.403,0,1.267998.287994,2.403.865997,3.403.576996,1,1.377991,1.785,2.402985,2.354,1.024017.569,2.178009.853001,3.463013.853001M337.145203,51.481201c-.503998.406002-1.114014.610001-1.830017.610001-.649994,0-1.149994-.187-1.5-.562-.350006-.373001-.523987-.91-.523987-1.609001v-7.000999h3.708008v-1.926998h-3.708008v-2.830002h-2.34201v2.830002h-2.195007v1.926998h2.195007v7.098c0,1.301003.358002,2.301003,1.072998,3,.716003.700001,1.723999,1.049004,3.024994,1.049004.537018,0,1.057007-.077003,1.561005-.231003.503998-.154999.927002-.377998,1.269012-.670998l-.731995-1.683002ZM324.485199,38.5042c.454987,0,.833008-.149998,1.134003-.452.300995-.299999.451996-.669998.451996-1.108997,0-.423-.151001-.777-.451996-1.062-.300995-.284-.679016-.426003-1.134003-.426003-.455017,0-.833008.150002-1.134003.451-.300995.301003-.451019.663002-.451019,1.084999,0,.423.150024.781002.451019,1.074001.300995.292.678986.438999,1.134003.438999M323.314178,53.9202h2.34201v-12.927998h-2.34201v12.927998ZM314.801178,54.066204c1.723999,0,3.086029-.345001,4.086029-1.036003,1-.690998,1.5-1.621998,1.5-2.792999,0-.877998-.228027-1.561001-.683014-2.049s-1.003998-.834-1.645996-1.036999c-.643005-.203003-1.484009-.394001-2.524994-.573002-.779999-.146999-1.386017-.277-1.817017-.390999-.431-.112999-.792999-.292-1.085999-.535999-.291992-.243999-.438995-.577-.438995-1,0-.537003.26001-.968002.781006-1.293003.519989-.324997,1.276001-.487999,2.268982-.487999,1.430023,0,2.674011.341999,3.732025,1.025002l1-1.854c-.553009-.358002-1.261017-.643002-2.122009-.854-.863007-.211002-1.723999-.317001-2.585999-.317001-1.643005,0-2.951996.353001-3.927002,1.061001-.976013.707001-1.463989,1.646-1.463989,2.817001,0,.910999.235992,1.618999.707001,2.121998.471985.505001,1.036987.863003,1.695984,1.074001.65799.210999,1.507996.397999,2.549011.561001.763977.129997,1.354004.247997,1.767975.353001.415009.105999.76001.272999,1.037018.500999.276001.226997.415009.535999.415009.925999,0,1.171001-1.025024,1.757-3.074005,1.757-.82901,0-1.651001-.122002-2.463013-.366001-.813995-.243999-1.505005-.569-2.074005-.975998l-.975983,1.854c.553009.438999,1.317993.800999,2.292999,1.084999.975983.285,1.992004.427002,3.048981.427002M301.142181,52.0172c-.829987,0-1.573975-.190998-2.231995-.572998-.658997-.382-1.179993-.917999-1.561981-1.610001-.382019-.690998-.573029-1.484001-.573029-2.377998s.19101-1.687.573029-2.378002c.381989-.690998.902985-1.223999,1.561981-1.598.65802-.374001,1.402008-.561001,2.231995-.561001.82901,0,1.572998.187,2.232025.561001.65799.374001,1.173981.907001,1.547974,1.598.374023.691002.561005,1.484001.561005,2.378002s-.186981,1.687-.561005,2.377998c-.373993.692001-.889984,1.228001-1.547974,1.610001-.659027.382-1.403015.572998-2.232025.572998M301.142181,54.066204c1.283997,0,2.434998-.284,3.451019-.853001,1.015991-.569,1.812988-1.354,2.390991-2.354.576996-1,.865997-2.135002.865997-3.403,0-1.269001-.289001-2.403-.865997-3.403-.578003-1-1.375-1.781002-2.390991-2.342003-1.016022-.561001-2.167023-.841-3.451019-.841-1.285004,0-2.440002.279999-3.463989.841-1.024994.561001-1.825989,1.342003-2.403015,2.342003-.576996,1-.865997,2.133999-.865997,3.403,0,1.267998.289001,2.403.865997,3.403.577026,1,1.378021,1.785,2.403015,2.354,1.023987.569,2.178986.853001,3.463989.853001M285.628204,52.0172c-.813019,0-1.553009-.190998-2.220001-.572998-.667023-.382-1.187012-.917999-1.561005-1.610001-.373993-.690998-.561005-1.484001-.561005-2.377998s.19101-1.683002.572998-2.366001.902985-1.216,1.561005-1.598c.658997-.382,1.394989-.573002,2.208008-.573002.828979,0,1.572998.187,2.231995.561001.65799.374001,1.178986.907001,1.561005,1.598.381989.691002.572998,1.484001.572998,2.378002s-.19101,1.687-.572998,2.377998c-.382019.692001-.903015,1.228001-1.561005,1.610001-.658997.382-1.403015.572998-2.231995.572998M285.823181,40.870201c-.959991,0-1.837982.183002-2.634003.549-.796997.366001-1.455994.906002-1.975983,1.622002v-2.049h-2.244019v17.659998h2.341003v-6.682997c.537018.682999,1.19101,1.202999,1.96402,1.560997.772003.358002,1.621979.536003,2.548981.536003,1.252014,0,2.374023-.276001,3.365997-.829002.992004-.552998,1.769012-1.328999,2.330017-2.329998.561005-1,.841003-2.150002.841003-3.451s-.279999-2.447002-.841003-3.440002c-.561005-.991001-1.338013-1.764-2.330017-2.316998-.991974-.552002-2.113983-.829002-3.365997-.829002M269.333191,42.846203c1.122986,0,2.062012.344997,2.817993,1.035999.756012.692001,1.199005,1.582001,1.32901,2.671001h-8.292999c.130005-1.105003.572998-2,1.32901-2.683002.755981-.682999,1.694977-1.023998,2.816986-1.023998M275.724182,47.529202c0-1.300999-.272003-2.454998-.816986-3.464001-.545013-1.007999-1.300995-1.792999-2.268005-2.354-.967987-.561001-2.070007-.841-3.306-.841s-2.345001.279999-3.32901.841c-.983978.561001-1.755981,1.346001-2.316986,2.354-.562012,1.009003-.84201,2.139-.84201,3.391003,0,1.267998.287994,2.406998.865997,3.414997.576996,1.008003,1.394012,1.793003,2.451019,2.354,1.056976.561001,2.268982.841003,3.634979.841003,1.072998,0,2.045013-.178001,2.915009-.536003.869995-.357998,1.597992-.877998,2.183014-1.560997l-1.292999-1.513c-.943024,1.041-2.187012,1.560997-3.732025,1.560997-1.267975,0-2.328979-.344997-3.182983-1.035999-.854004-.690998-1.354004-1.605999-1.5-2.744999h10.488983c.032013-.292.048004-.528.048004-.707001M253.234192,46.651203h-4.145996v-7.684002h4.145996c1.545013,0,2.723999.329002,3.536987.987999.813019.659,1.220001,1.606003,1.220001,2.842003s-.406982,2.187-1.220001,2.854c-.812988.667-1.991974,1-3.536987,1M260.723206,53.9202l-4.049011-5.731998c1.203003-.423,2.130005-1.098,2.781006-2.025002.649994-.926998.974976-2.049.974976-3.365997,0-1.854-.633972-3.309002-1.901978-4.366001-1.269012-1.056999-3.009003-1.586002-5.220001-1.586002h-6.660004v17.075001h2.440002v-5.195999h4.220001c.259995,0,.617004-.015999,1.072998-.048l3.682983,5.243999h2.659027Z"/><path class="c" d="M399.932007,23.429001h2.34201V5.329002h-2.34201v18.099998ZM389.516998,21.769997c-.894989,0-1.593994-.185997-2.097992-.560997-.503998-.374001-.756012-.886002-.756012-1.536003,0-1.334.990997-2.000999,2.976013-2.000999h3.609985v1.805c-.292999.732002-.764984,1.297005-1.414978,1.695999-.651001.398003-1.423004.597-2.317017.597M390.053009,10.378998c-1.041016,0-2.024017.142006-2.951019.427002-.927002.285004-1.723999.695-2.390991,1.232002l.976013,1.755997c.503998-.422997,1.121979-.760002,1.853973-1.012001.732025-.251999,1.479004-.377998,2.244019-.377998,1.138,0,2,.267998,2.585999.804001.584991.537003.877991,1.309998.877991,2.318001v.462997h-3.708008c-1.804993,0-3.121979.346001-3.951996,1.037003-.828979.691002-1.243988,1.606003-1.243988,2.743996,0,1.139.434998,2.058006,1.304993,2.757004s2.028992,1.047997,3.476013,1.047997c.992004,0,1.850006-.157997,2.574005-.474998.722992-.317001,1.279999-.777,1.67099-1.377998v1.707001h2.218994v-7.806c0-1.739998-.475006-3.049004-1.427002-3.927002-.950989-.877998-2.320984-1.317001-4.109985-1.317001M375.636993,10.378998c-1.023987,0-1.938995.179001-2.743988.537003-.804993.357002-1.444.870003-1.915009,1.536003v-1.951004h-2.243988v12.928001h2.34198v-6.659004c0-1.381996.365021-2.442993,1.097015-3.182999.731995-.739998,1.731995-1.110001,3.001007-1.110001,1.121979,0,1.983002.317001,2.584991.951004.60199.633995.902985,1.577995.902985,2.830002v7.170998h2.341003v-7.440002c0-1.836998-.483978-3.231995-1.450989-4.182999-.967987-.950996-2.27301-1.427002-3.915009-1.427002M358.782013,21.526001c-.830017,0-1.574005-.190002-2.232025-.572998-.658997-.382004-1.179993-.917999-1.560974-1.610001-.383026-.691002-.574005-1.483002-.574005-2.378006,0-.893997.190979-1.686996.574005-2.377998.380981-.690994.901978-1.223999,1.560974-1.598.65802-.374001,1.402008-.560997,2.232025-.560997.828979,0,1.572998.186996,2.231995.560997.65799.374001,1.173981.907005,1.548981,1.598.373016.691002.561005,1.484001.561005,2.377998,0,.895004-.187988,1.687004-.561005,2.378006-.375.692001-.890991,1.227997-1.548981,1.610001-.658997.382996-1.403015.572998-2.231995.572998M358.782013,23.574997c1.283997,0,2.434998-.283997,3.450989-.852997s1.812988-1.354004,2.390991-2.354004c.576996-1,.865997-2.134995.865997-3.403,0-1.267998-.289001-2.403-.865997-3.403-.578003-1-1.375-1.779999-2.390991-2.341995-1.015991-.561005-2.166992-.841003-3.450989-.841003-1.285004,0-2.440002.279999-3.46402.841003-1.024994.561996-1.825989,1.341995-2.402985,2.341995s-.865997,2.135002-.865997,3.403c0,1.268005.289001,2.403.865997,3.403s1.377991,1.785004,2.402985,2.354004c1.024017.569,2.179016.852997,3.46402.852997M347.609985,8.013c.455017,0,.833008-.150002,1.134003-.451004.301025-.300995.451019-.670998.451019-1.109993,0-.423004-.149994-.777-.451019-1.061005-.300995-.284996-.678986-.427002-1.134003-.427002-.455994,0-.833984.150002-1.133972.451004-.301025.301003-.452026.663002-.452026,1.084999,0,.424004.151001.780998.452026,1.073997.299988.292.677979.439003,1.133972.439003M346.438995,23.429001h2.34201v-12.928001h-2.34201v12.928001ZM342.877991,20.989998c-.503998.407005-1.113983.610001-1.828979.610001-.651001,0-1.151001-.186996-1.501007-.560997-.348999-.374001-.524017-.911003-.524017-1.610001v-7.000999h3.708008v-1.927002h-3.708008v-2.830002h-2.34198v2.830002h-2.195007v1.927002h2.195007v7.098c0,1.301003.358002,2.302002,1.074005,3.000999.714996.698997,1.722992,1.047997,3.023987,1.047997.536987,0,1.057007-.076996,1.561005-.230995.503998-.154999.927002-.377998,1.268982-.671005l-.731995-1.682999ZM325.681,21.769997c-.894012,0-1.593994-.185997-2.097992-.560997-.503998-.374001-.756012-.886002-.756012-1.536003,0-1.334.992004-2.000999,2.976013-2.000999h3.609985v1.805c-.291992.732002-.764008,1.297005-1.414001,1.695999-.651001.398003-1.423981.597-2.317993.597M326.217987,10.378998c-1.040985,0-2.024994.142006-2.951996.427002-.927002.285004-1.723999.695-2.389984,1.232002l.975983,1.755997c.503021-.422997,1.122009-.760002,1.852997-1.012001.732025-.251999,1.480011-.377998,2.245026-.377998,1.138,0,2,.267998,2.584991.804001.585999.537003.877991,1.309998.877991,2.318001v.462997h-3.707001c-1.804993,0-3.122986.346001-3.951996,1.037003s-1.243988,1.606003-1.243988,2.743996c0,1.139.434998,2.058006,1.304993,2.757004s2.027985,1.047997,3.475983,1.047997c.992004,0,1.850006-.157997,2.573029-.474998.723999-.317001,1.280975-.777,1.67099-1.377998v1.707001h2.220001v-7.806c0-1.739998-.476013-3.049004-1.427002-3.927002s-2.321014-1.317001-4.110016-1.317001M311.802002,10.378998c-1.024994,0-1.940002.179001-2.743988.537003-.805023.357002-1.444.870003-1.915009,1.536003v-1.951004h-2.244019v12.928001h2.341003v-6.659004c0-1.381996.365997-2.442993,1.098022-3.182999.731995-.739998,1.731995-1.110001,3-1.110001,1.121979,0,1.983978.317001,2.585999.951004.600983.633995.901978,1.577995.901978,2.830002v7.170998h2.34201v-7.440002c0-1.836998-.484009-3.231995-1.450989-4.182999-.968018-.950996-2.27301-1.427002-3.915009-1.427002M297.312012,12.671997v-2.170998h-2.244019v12.928001h2.34201v-6.440002c0-1.397995.362-2.474998,1.084991-3.231995.723999-.756004,1.720001-1.134003,2.989014-1.134003.22699,0,.406006.007996.53598.024002v-2.268005c-1.138,0-2.105988.195-2.902985.584999-.796997.391006-1.39801.960007-1.804993,1.708M285.433014,12.355003c1.121979,0,2.060974.344994,2.816986,1.035995.756989.692001,1.199005,1.582001,1.329987,2.670998h-8.293976c.129974-1.104996.572998-2,1.329987-2.682999.756012-.682999,1.695007-1.023994,2.817017-1.023994M291.824005,17.038002c0-1.301003-.27301-2.455002-.817017-3.464005-.544983-1.007996-1.300995-1.792-2.268982-2.353996-.96701-.561005-2.069-.841003-3.304993-.841003-1.236023,0-2.346008.279999-3.330017.841003-.984009.561996-1.756012,1.346001-2.316986,2.353996-.561005,1.009003-.841003,2.139-.841003,3.390999,0,1.268005.287994,2.407005.86499,3.415001.578003,1.009003,1.394989,1.792999,2.451996,2.354004,1.057007.560997,2.268005.840996,3.634003.840996,1.074005,0,2.045013-.177994,2.915009-.535995s1.597992-.877998,2.18399-1.561005l-1.292999-1.513c-.944,1.041-2.187988,1.561005-3.731995,1.561005-1.269012,0-2.329987-.345001-3.18399-1.036003-.852997-.690994-1.352997-1.605995-1.5-2.743996h10.488983c.03302-.292999.049011-.528999.049011-.708M277.018005,20.989998c-.505005.407005-1.114014.610001-1.830017.610001-.649994,0-1.151001-.186996-1.5-.560997-.349976-.374001-.523987-.911003-.523987-1.610001v-7.000999h3.707001v-1.927002h-3.707001v-2.830002h-2.34201v2.830002h-2.195984v1.927002h2.195984v7.098c0,1.301003.356995,2.302002,1.072998,3.000999.714996.698997,1.723999,1.047997,3.025024,1.047997.53598,0,1.056976-.076996,1.560974-.230995.503998-.154999.927002-.377998,1.268005-.671005l-.730988-1.682999ZM260.772003,10.378998c-1.024994,0-1.938995.179001-2.743988.537003-.805023.357002-1.444.870003-1.915009,1.536003v-1.951004h-2.244003v12.928001h2.340988v-6.659004c0-1.381996.365997-2.442993,1.098022-3.182999.731995-.739998,1.731995-1.110001,3-1.110001,1.122986,0,1.983978.317001,2.585999.951004.60199.633995.902985,1.577995.902985,2.830002v7.170998h2.341003v-7.440002c0-1.836998-.484009-3.231995-1.450989-4.182999-.968018-.950996-2.27301-1.427002-3.915009-1.427002M246.647995,23.429001h2.438995V6.354004h-2.438995v17.074997Z"/></svg>